<?xml version="1.0" encoding="UTF-8" standalone="no"?>
<!DOCTYPE svg PUBLIC "-//W3C//DTD SVG 1.1//EN"
 "http://www.w3.org/Graphics/SVG/1.1/DTD/svg11.dtd">
<!-- Generated by graphviz version 2.40.1 (20161225.0304)
 -->
<!-- Title: state transitions Pages: 1 -->
<svg width="196pt" height="352pt"
 viewBox="0.00 0.00 196.00 352.00" xmlns="http://www.w3.org/2000/svg" xmlns:xlink="http://www.w3.org/1999/xlink">
<g id="graph0" class="graph" transform="scale(1 1) rotate(0) translate(4 348)">
<title>state transitions</title>
<polygon fill="#ffffff" stroke="transparent" points="-4,4 -4,-348 192,-348 192,4 -4,4"/>
<g id="clust1" class="cluster state regular">
<title>cluster_next_state</title>
<path fill="none" stroke="#000000" stroke-width="2" d="M20,-8C20,-8 168,-8 168,-8 174,-8 180,-14 180,-20 180,-20 180,-324 180,-324 180,-330 174,-336 168,-336 168,-336 20,-336 20,-336 14,-336 8,-330 8,-324 8,-324 8,-20 8,-20 8,-14 14,-8 20,-8"/>
<text text-anchor="start" x="66.8208" y="-317.2" font-family="Helvetica,sans-Serif" font-size="12.00" fill="#000000">next_state</text>
</g>
<!-- next_state -->
<!-- IDLE -->
<g id="node2" class="node state regular">
<title>IDLE</title>
<polygon fill="#ffffff" fill-opacity="0.003922" stroke="transparent" stroke-width="2" points="72,-298 16,-298 16,-262 72,-262 72,-298"/>
<text text-anchor="start" x="30.6644" y="-276.2" font-family="Helvetica,sans-Serif" font-size="12.00" fill="#000000">IDLE</text>
<path fill="none" stroke="#000000" stroke-width="2" d="M28.3333,-263C28.3333,-263 59.6667,-263 59.6667,-263 65.3333,-263 71,-268.6667 71,-274.3333 71,-274.3333 71,-285.6667 71,-285.6667 71,-291.3333 65.3333,-297 59.6667,-297 59.6667,-297 28.3333,-297 28.3333,-297 22.6667,-297 17,-291.3333 17,-285.6667 17,-285.6667 17,-274.3333 17,-274.3333 17,-268.6667 22.6667,-263 28.3333,-263"/>
</g>
<!-- IDLE&#45;&gt;IDLE -->
<g id="edge2" class="edge transition">
<title>IDLE&#45;&gt;IDLE</title>
<path fill="none" stroke="#000000" d="M72.0183,-284.8247C83.888,-285.1883 94,-283.5801 94,-280 94,-277.5387 89.2205,-276.0094 82.3762,-275.4121"/>
<polygon fill="#000000" stroke="#000000" points="82.0957,-271.9049 72.0183,-275.1753 81.9356,-278.903 82.0957,-271.9049"/>
<text text-anchor="start" x="94" y="-277" font-family="Helvetica,sans-Serif" font-size="10.00" fill="#000000">not (i_valid) &#160;&#160;</text>
</g>
<!-- HEADER -->
<g id="node3" class="node state regular">
<title>HEADER</title>
<polygon fill="#ffffff" fill-opacity="0.003922" stroke="transparent" stroke-width="2" points="87.5,-216 16.5,-216 16.5,-180 87.5,-180 87.5,-216"/>
<text text-anchor="start" x="27.5016" y="-194.2" font-family="Helvetica,sans-Serif" font-size="12.00" fill="#000000">HEADER</text>
<path fill="none" stroke="#000000" stroke-width="2" d="M28.8333,-181C28.8333,-181 75.1667,-181 75.1667,-181 80.8333,-181 86.5,-186.6667 86.5,-192.3333 86.5,-192.3333 86.5,-203.6667 86.5,-203.6667 86.5,-209.3333 80.8333,-215 75.1667,-215 75.1667,-215 28.8333,-215 28.8333,-215 23.1667,-215 17.5,-209.3333 17.5,-203.6667 17.5,-203.6667 17.5,-192.3333 17.5,-192.3333 17.5,-186.6667 23.1667,-181 28.8333,-181"/>
</g>
<!-- IDLE&#45;&gt;HEADER -->
<g id="edge1" class="edge transition">
<title>IDLE&#45;&gt;HEADER</title>
<path fill="none" stroke="#000000" d="M45.7755,-261.8015C46.7905,-251.3976 48.0857,-238.1215 49.2315,-226.3768"/>
<polygon fill="#000000" stroke="#000000" points="52.7419,-226.4402 50.2295,-216.1476 45.775,-225.7605 52.7419,-226.4402"/>
<text text-anchor="start" x="48" y="-236" font-family="Helvetica,sans-Serif" font-size="10.00" fill="#000000">i_valid &#160;&#160;</text>
</g>
<!-- DATA -->
<g id="node4" class="node state regular">
<title>DATA</title>
<polygon fill="#ffffff" fill-opacity="0.003922" stroke="transparent" stroke-width="2" points="72,-134 16,-134 16,-98 72,-98 72,-134"/>
<text text-anchor="start" x="28.0004" y="-112.2" font-family="Helvetica,sans-Serif" font-size="12.00" fill="#000000">DATA</text>
<path fill="none" stroke="#000000" stroke-width="2" d="M28.3333,-99C28.3333,-99 59.6667,-99 59.6667,-99 65.3333,-99 71,-104.6667 71,-110.3333 71,-110.3333 71,-121.6667 71,-121.6667 71,-127.3333 65.3333,-133 59.6667,-133 59.6667,-133 28.3333,-133 28.3333,-133 22.6667,-133 17,-127.3333 17,-121.6667 17,-121.6667 17,-110.3333 17,-110.3333 17,-104.6667 22.6667,-99 28.3333,-99"/>
</g>
<!-- HEADER&#45;&gt;DATA -->
<g id="edge3" class="edge transition">
<title>HEADER&#45;&gt;DATA</title>
<path fill="none" stroke="#000000" d="M50.2245,-179.8015C49.2095,-169.3976 47.9143,-156.1215 46.7685,-144.3768"/>
<polygon fill="#000000" stroke="#000000" points="50.225,-143.7605 45.7705,-134.1476 43.2581,-144.4402 50.225,-143.7605"/>
<text text-anchor="middle" x="49.3895" y="-154" font-family="Helvetica,sans-Serif" font-size="10.00" fill="#000000"> </text>
</g>
<!-- DATA&#45;&gt;DATA -->
<g id="edge5" class="edge transition">
<title>DATA&#45;&gt;DATA</title>
<path fill="none" stroke="#000000" d="M72.0183,-120.8247C83.888,-121.1883 94,-119.5801 94,-116 94,-113.5387 89.2205,-112.0094 82.3762,-111.4121"/>
<polygon fill="#000000" stroke="#000000" points="82.0957,-107.9049 72.0183,-111.1753 81.9356,-114.903 82.0957,-107.9049"/>
<text text-anchor="start" x="94" y="-113" font-family="Helvetica,sans-Serif" font-size="10.00" fill="#000000">not (i_last) &#160;&#160;</text>
</g>
<!-- DONE -->
<g id="node5" class="node state regular">
<title>DONE</title>
<polygon fill="#ffffff" fill-opacity="0.003922" stroke="transparent" stroke-width="2" points="81,-52 25,-52 25,-16 81,-16 81,-52"/>
<text text-anchor="start" x="35.6684" y="-30.2" font-family="Helvetica,sans-Serif" font-size="12.00" fill="#000000">DONE</text>
<path fill="none" stroke="#000000" stroke-width="2" d="M37.3333,-17C37.3333,-17 68.6667,-17 68.6667,-17 74.3333,-17 80,-22.6667 80,-28.3333 80,-28.3333 80,-39.6667 80,-39.6667 80,-45.3333 74.3333,-51 68.6667,-51 68.6667,-51 37.3333,-51 37.3333,-51 31.6667,-51 26,-45.3333 26,-39.6667 26,-39.6667 26,-28.3333 26,-28.3333 26,-22.6667 31.6667,-17 37.3333,-17"/>
</g>
<!-- DATA&#45;&gt;DONE -->
<g id="edge4" class="edge transition">
<title>DATA&#45;&gt;DONE</title>
<path fill="none" stroke="#000000" d="M45.9974,-97.8015C47.1393,-87.3976 48.5964,-74.1215 49.8855,-62.3768"/>
<polygon fill="#000000" stroke="#000000" points="53.3962,-62.4698 51.0082,-52.1476 46.438,-61.706 53.3962,-62.4698"/>
<text text-anchor="start" x="49" y="-72" font-family="Helvetica,sans-Serif" font-size="10.00" fill="#000000">i_last &#160;&#160;</text>
</g>
<!-- DONE&#45;&gt;IDLE -->
<g id="edge6" class="edge transition">
<title>DONE&#45;&gt;IDLE</title>
<path fill="none" stroke="#000000" d="M81.0424,-42.7071C105.7294,-52.0337 140.1437,-69.4796 156,-98 163.7746,-111.9841 160.6365,-118.6865 156,-134 150.1954,-153.1714 131,-151.4692 131,-171.5 131,-239 131,-239 131,-239 131,-250.6151 105.3049,-261.7148 81.8431,-269.4287"/>
<polygon fill="#000000" stroke="#000000" points="80.4975,-266.1828 72.0062,-272.5191 82.5956,-272.861 80.4975,-266.1828"/>
<text text-anchor="start" x="142" y="-154" font-family="Helvetica,sans-Serif" font-size="10.00" fill="#000000">i_ready &#160;&#160;</text>
</g>
<!-- DONE&#45;&gt;DONE -->
<g id="edge7" class="edge transition">
<title>DONE&#45;&gt;DONE</title>
<path fill="none" stroke="#000000" d="M81.0183,-38.8247C92.888,-39.1883 103,-37.5801 103,-34 103,-31.5387 98.2205,-30.0094 91.3762,-29.4121"/>
<polygon fill="#000000" stroke="#000000" points="91.0957,-25.9049 81.0183,-29.1753 90.9356,-32.903 91.0957,-25.9049"/>
<text text-anchor="start" x="103" y="-31" font-family="Helvetica,sans-Serif" font-size="10.00" fill="#000000">not (i_ready) &#160;&#160;</text>
</g>
</g>
</svg>
