<svg xmlns="http://www.w3.org/2000/svg" id="sprotty_work.packet_handler" class="sprotty-graph sprotty-block-diagram blockdiagram" style="font-family:&quot;Noto Sans&quot;, Helvetica, Arial, sans-serif;perspective-origin:0px 0px;transform-origin:0px 0px;-webkit-locale:&quot;en&quot;;" version="1.1" viewBox="7 7 553.53955078125 417" width="553.53955078125" height="417"><g transform="scale(1) translate(0,0)"><g id="sprotty_e$packet_handler" class="architecture" transform="translate(12, 12)"><g class="sprotty-block" style="fill:rgb(255, 255, 255);stroke:rgb(48, 48, 48);stroke-dasharray:0px;"><rect x="0" y="0" rx="1" ry="1" width="543.53955078125" height="407"/><text x="271.769775390625" y="12" class="sprotty-block-name-openable sprotty-block-name" style="dominant-baseline:middle;fill:rgb(48, 48, 48);font-weight:700;perspective-origin:167.297px 10.6719px;stroke:rgba(0, 0, 0, 0);text-anchor:middle;">packet_handler</text><line x1="0" y1="20" x2="543.53955078125" y2="20"/></g><g id="sprotty_e$packet_handler/k$null12/i$o_dataOUT_to_e$packet_handler/r$o_data" class="sprotty-edge thick edge" style="fill:none;stroke:rgb(112, 112, 112);stroke-linejoin:round;stroke-width:3px;"><g><path d="M 269.78187561035156 325.5 L 287.78187561035156 325.5 C 288.78187561035156 325.5 289.78187561035156 326.5 289.78187561035156 327.5 L 289.78187561035156 366 C 289.78187561035156 367 290.78187561035156 368 291.78187561035156 368 L 543.53955078125 368 "/><path d="M 269.78187561035156 325.5 L 287.78187561035156 325.5 C 288.78187561035156 325.5 289.78187561035156 326.5 289.78187561035156 327.5 L 289.78187561035156 366 C 289.78187561035156 367 290.78187561035156 368 291.78187561035156 368 L 543.53955078125 368 " class="clickable"/></g><circle r="3" id="sprotty_e$packet_handler/k$null12/i$o_dataOUT_to_e$packet_handler/r$o_data/junction0" transform="translate(289.78187561035156, 368)" class="sprotty-junction thick" style="fill:rgb(112, 112, 112);stroke:none;"/></g><g id="sprotty_e$packet_handler/k$null13/i$o_readyOUT_to_e$packet_handler/r$o_ready" class="sprotty-edge thick edge" style="fill:none;stroke:rgb(112, 112, 112);stroke-linejoin:round;stroke-width:3px;"><g><path d="M 269.78187561035156 75 L 277.78187561035156 75 C 278.78187561035156 75 279.78187561035156 76 279.78187561035156 77 L 279.78187561035156 103 C 279.78187561035156 104 280.78187561035156 105 281.78187561035156 105 L 543.53955078125 105 "/><path d="M 269.78187561035156 75 L 277.78187561035156 75 C 278.78187561035156 75 279.78187561035156 76 279.78187561035156 77 L 279.78187561035156 103 C 279.78187561035156 104 280.78187561035156 105 281.78187561035156 105 L 543.53955078125 105 " class="clickable"/></g><circle r="3" id="sprotty_e$packet_handler/k$null13/i$o_readyOUT_to_e$packet_handler/r$o_ready/junction0" transform="translate(279.78187561035156, 105)" class="sprotty-junction thick" style="fill:rgb(112, 112, 112);stroke:none;"/></g><g id="sprotty_e$packet_handler/k$null13/i$o_validOUT_to_e$packet_handler/r$o_valid" class="sprotty-edge thick edge" style="fill:none;stroke:rgb(112, 112, 112);stroke-linejoin:round;stroke-width:3px;"><g><path d="M 269.78187561035156 55 L 543.53955078125 55 "/><path d="M 269.78187561035156 55 L 543.53955078125 55 " class="clickable"/></g></g><g id="sprotty_e$packet_handler/m$o_packetLost/i$o_packetLostOUT_to_e$packet_handler/r$o_packetLost" class="sprotty-edge thick edge" style="fill:none;stroke:rgb(112, 112, 112);stroke-linejoin:round;stroke-width:3px;"><g><path d="M 445.0396728515625 288 L 543.53955078125 288 "/><path d="M 445.0396728515625 288 L 543.53955078125 288 " class="clickable"/></g></g><g id="sprotty_e$packet_handler/r$i_clk_to_e$packet_handler/k$null15/i$i_clkIN" class="sprotty-edge edge" style="fill:none;stroke:rgb(112, 112, 112);stroke-linejoin:round;"><g><path d="M 0 98 L 102.19593811035156 98 C 103.19593811035156 98 104.19593811035156 99 104.19593811035156 100 L 104.19593811035156 172 C 104.19593811035156 173 105.19593811035156 174 106.19593811035156 174 L 134.19593811035156 174 "/><path d="M 0 98 L 102.19593811035156 98 C 103.19593811035156 98 104.19593811035156 99 104.19593811035156 100 L 104.19593811035156 172 C 104.19593811035156 173 105.19593811035156 174 106.19593811035156 174 L 134.19593811035156 174 " class="clickable"/></g><circle r="2" id="sprotty_e$packet_handler/r$i_clk_to_e$packet_handler/k$null15/i$i_clkIN/junction0" transform="translate(104.19593811035156, 98)" class="sprotty-junction junction" style="fill:rgb(112, 112, 112);stroke:none;"/><circle r="2" id="sprotty_e$packet_handler/r$i_clk_to_e$packet_handler/k$null15/i$i_clkIN/junction1" transform="translate(104.19593811035156, 174)" class="sprotty-junction junction" style="fill:rgb(112, 112, 112);stroke:none;"/></g><g id="sprotty_e$packet_handler/r$i_rst_n_to_e$packet_handler/k$null15/i$i_rst_nIN" class="sprotty-edge edge" style="fill:none;stroke:rgb(112, 112, 112);stroke-linejoin:round;"><g><path d="M 0 171 L 92.19593811035156 171 C 93.19593811035156 171 94.19593811035156 172 94.19593811035156 173 L 94.19593811035156 182 C 94.19593811035156 183 95.19593811035156 184 96.19593811035156 184 L 134.19593811035156 184 "/><path d="M 0 171 L 92.19593811035156 171 C 93.19593811035156 171 94.19593811035156 172 94.19593811035156 173 L 94.19593811035156 182 C 94.19593811035156 183 95.19593811035156 184 96.19593811035156 184 L 134.19593811035156 184 " class="clickable"/></g><circle r="2" id="sprotty_e$packet_handler/r$i_rst_n_to_e$packet_handler/k$null15/i$i_rst_nIN/junction0" transform="translate(94.19593811035156, 171)" class="sprotty-junction junction" style="fill:rgb(112, 112, 112);stroke:none;"/><circle r="2" id="sprotty_e$packet_handler/r$i_rst_n_to_e$packet_handler/k$null15/i$i_rst_nIN/junction1" transform="translate(94.19593811035156, 184)" class="sprotty-junction junction" style="fill:rgb(112, 112, 112);stroke:none;"/></g><g id="sprotty_e$packet_handler/r$i_valid_to_e$packet_handler/k$null14/i$i_validIN" class="sprotty-edge edge" style="fill:none;stroke:rgb(112, 112, 112);stroke-linejoin:round;"><g><path d="M 0 205 L 231.98890686035156 205 "/><path d="M 0 205 L 231.98890686035156 205 " class="clickable"/></g></g><g id="sprotty_e$packet_handler/r$i_last_to_e$packet_handler/k$null14/i$i_lastIN" class="sprotty-edge edge" style="fill:none;stroke:rgb(112, 112, 112);stroke-linejoin:round;"><g><path d="M 0 64 L 122.19593811035156 64 C 123.19593811035156 64 124.19593811035156 65 124.19593811035156 66 L 124.19593811035156 140 C 124.19593811035156 141 125.19593811035156 142 126.19593811035156 142 L 199.98890686035156 142 C 200.98890686035156 142 201.98890686035156 143 201.98890686035156 144 L 201.98890686035156 183 C 201.98890686035156 184 202.98890686035156 185 203.98890686035156 185 L 231.98890686035156 185 "/><path d="M 0 64 L 122.19593811035156 64 C 123.19593811035156 64 124.19593811035156 65 124.19593811035156 66 L 124.19593811035156 140 C 124.19593811035156 141 125.19593811035156 142 126.19593811035156 142 L 199.98890686035156 142 C 200.98890686035156 142 201.98890686035156 143 201.98890686035156 144 L 201.98890686035156 183 C 201.98890686035156 184 202.98890686035156 185 203.98890686035156 185 L 231.98890686035156 185 " class="clickable"/></g><circle r="2" id="sprotty_e$packet_handler/r$i_last_to_e$packet_handler/k$null14/i$i_lastIN/junction0" transform="translate(124.19593811035156, 64)" class="sprotty-junction junction" style="fill:rgb(112, 112, 112);stroke:none;"/></g><g id="sprotty_e$packet_handler/r$i_ready_to_e$packet_handler/k$null14/i$i_readyIN" class="sprotty-edge edge" style="fill:none;stroke:rgb(112, 112, 112);stroke-linejoin:round;"><g><path d="M 0 132 L 219.98890686035156 132 C 220.98890686035156 132 221.98890686035156 133 221.98890686035156 134 L 221.98890686035156 173 C 221.98890686035156 174 222.98890686035156 175 223.98890686035156 175 L 231.98890686035156 175 "/><path d="M 0 132 L 219.98890686035156 132 C 220.98890686035156 132 221.98890686035156 133 221.98890686035156 134 L 221.98890686035156 173 C 221.98890686035156 174 222.98890686035156 175 223.98890686035156 175 L 231.98890686035156 175 " class="clickable"/></g></g><g id="sprotty_e$packet_handler/r$i_clk_to_e$packet_handler/k$null13/i$i_clkIN" class="sprotty-edge edge" style="fill:none;stroke:rgb(112, 112, 112);stroke-linejoin:round;"><g><path d="M 0 98 L 102.19593811035156 98 C 103.19593811035156 98 104.19593811035156 97 104.19593811035156 96 L 104.19593811035156 46 C 104.19593811035156 45 105.19593811035156 44 106.19593811035156 44 L 181.98890686035156 44 L 181.98890686035156 45 L 231.98890686035156 45 "/><path d="M 0 98 L 102.19593811035156 98 C 103.19593811035156 98 104.19593811035156 97 104.19593811035156 96 L 104.19593811035156 46 C 104.19593811035156 45 105.19593811035156 44 106.19593811035156 44 L 181.98890686035156 44 L 181.98890686035156 45 L 231.98890686035156 45 " class="clickable"/></g></g><g id="sprotty_e$packet_handler/r$i_rst_n_to_e$packet_handler/k$null13/i$i_rst_nIN" class="sprotty-edge edge" style="fill:none;stroke:rgb(112, 112, 112);stroke-linejoin:round;"><g><path d="M 0 171 L 92.19593811035156 171 C 93.19593811035156 171 94.19593811035156 170 94.19593811035156 169 L 94.19593811035156 77 C 94.19593811035156 76 95.19593811035156 75 96.19593811035156 75 L 231.98890686035156 75 "/><path d="M 0 171 L 92.19593811035156 171 C 93.19593811035156 171 94.19593811035156 170 94.19593811035156 169 L 94.19593811035156 77 C 94.19593811035156 76 95.19593811035156 75 96.19593811035156 75 L 231.98890686035156 75 " class="clickable"/></g></g><g id="sprotty_e$packet_handler/r$i_last_to_e$packet_handler/k$null13/i$i_lastIN" class="sprotty-edge edge" style="fill:none;stroke:rgb(112, 112, 112);stroke-linejoin:round;"><g><path d="M 0 64 L 181.98890686035156 64 L 181.98890686035156 65 L 231.98890686035156 65 "/><path d="M 0 64 L 181.98890686035156 64 L 181.98890686035156 65 L 231.98890686035156 65 " class="clickable"/></g></g><g id="sprotty_e$packet_handler/r$i_ready_to_e$packet_handler/k$null13/i$i_readyIN" class="sprotty-edge edge" style="fill:none;stroke:rgb(112, 112, 112);stroke-linejoin:round;"><g><path d="M 0 132 L 82.19593811035156 132 C 83.19593811035156 132 84.19593811035156 131 84.19593811035156 130 L 84.19593811035156 56 C 84.19593811035156 55 85.19593811035156 54 86.19593811035156 54 L 181.98890686035156 54 L 181.98890686035156 55 L 231.98890686035156 55 "/><path d="M 0 132 L 82.19593811035156 132 C 83.19593811035156 132 84.19593811035156 131 84.19593811035156 130 L 84.19593811035156 56 C 84.19593811035156 55 85.19593811035156 54 86.19593811035156 54 L 181.98890686035156 54 L 181.98890686035156 55 L 231.98890686035156 55 " class="clickable"/></g><circle r="2" id="sprotty_e$packet_handler/r$i_ready_to_e$packet_handler/k$null13/i$i_readyIN/junction0" transform="translate(84.19593811035156, 132)" class="sprotty-junction junction" style="fill:rgb(112, 112, 112);stroke:none;"/></g><g id="sprotty_e$packet_handler/r$i_clk_to_e$packet_handler/k$null12/i$i_clkIN" class="sprotty-edge edge" style="fill:none;stroke:rgb(112, 112, 112);stroke-linejoin:round;"><g><path d="M 0 98 L 102.19593811035156 98 C 103.19593811035156 98 104.19593811035156 99 104.19593811035156 100 L 104.19593811035156 234 C 104.19593811035156 235 105.19593811035156 236 106.19593811035156 236 L 179.98890686035156 236 C 180.98890686035156 236 181.98890686035156 237 181.98890686035156 238 L 181.98890686035156 286 C 181.98890686035156 287 182.98890686035156 288 183.98890686035156 288 L 231.98890686035156 288 "/><path d="M 0 98 L 102.19593811035156 98 C 103.19593811035156 98 104.19593811035156 99 104.19593811035156 100 L 104.19593811035156 234 C 104.19593811035156 235 105.19593811035156 236 106.19593811035156 236 L 179.98890686035156 236 C 180.98890686035156 236 181.98890686035156 237 181.98890686035156 238 L 181.98890686035156 286 C 181.98890686035156 287 182.98890686035156 288 183.98890686035156 288 L 231.98890686035156 288 " class="clickable"/></g><circle r="2" id="sprotty_e$packet_handler/r$i_clk_to_e$packet_handler/k$null12/i$i_clkIN/junction0" transform="translate(181.98890686035156, 236)" class="sprotty-junction junction" style="fill:rgb(112, 112, 112);stroke:none;"/></g><g id="sprotty_e$packet_handler/r$i_rst_n_to_e$packet_handler/k$null12/i$i_rst_nIN" class="sprotty-edge edge" style="fill:none;stroke:rgb(112, 112, 112);stroke-linejoin:round;"><g><path d="M 0 171 L 92.19593811035156 171 C 93.19593811035156 171 94.19593811035156 172 94.19593811035156 173 L 94.19593811035156 316 C 94.19593811035156 317 95.19593811035156 318 96.19593811035156 318 L 231.98890686035156 318 "/><path d="M 0 171 L 92.19593811035156 171 C 93.19593811035156 171 94.19593811035156 172 94.19593811035156 173 L 94.19593811035156 316 C 94.19593811035156 317 95.19593811035156 318 96.19593811035156 318 L 231.98890686035156 318 " class="clickable"/></g><circle r="2" id="sprotty_e$packet_handler/r$i_rst_n_to_e$packet_handler/k$null12/i$i_rst_nIN/junction0" transform="translate(94.19593811035156, 318)" class="sprotty-junction junction" style="fill:rgb(112, 112, 112);stroke:none;"/></g><g id="sprotty_e$packet_handler/r$i_valid_to_e$packet_handler/k$null12/i$i_validIN" class="sprotty-edge edge" style="fill:none;stroke:rgb(112, 112, 112);stroke-linejoin:round;"><g><path d="M 0 205 L 72.19593811035156 205 C 73.19593811035156 205 74.19593811035156 206 74.19593811035156 207 L 74.19593811035156 326 C 74.19593811035156 327 75.19593811035156 328 76.19593811035156 328 L 231.98890686035156 328 "/><path d="M 0 205 L 72.19593811035156 205 C 73.19593811035156 205 74.19593811035156 206 74.19593811035156 207 L 74.19593811035156 326 C 74.19593811035156 327 75.19593811035156 328 76.19593811035156 328 L 231.98890686035156 328 " class="clickable"/></g><circle r="2" id="sprotty_e$packet_handler/r$i_valid_to_e$packet_handler/k$null12/i$i_validIN/junction0" transform="translate(74.19593811035156, 205)" class="sprotty-junction junction" style="fill:rgb(112, 112, 112);stroke:none;"/></g><g id="sprotty_e$packet_handler/r$o_ready_to_e$packet_handler/k$null12/i$o_readyIN" class="sprotty-edge thick edge" style="fill:none;stroke:rgb(112, 112, 112);stroke-linejoin:round;stroke-width:3px;"><g><path d="M 543.53955078125 105 L 213.98890686035156 105 C 212.98890686035156 105 211.98890686035156 106 211.98890686035156 107 L 211.98890686035156 266 C 211.98890686035156 267 212.98890686035156 268 213.98890686035156 268 L 231.98890686035156 268 "/><path d="M 543.53955078125 105 L 213.98890686035156 105 C 212.98890686035156 105 211.98890686035156 106 211.98890686035156 107 L 211.98890686035156 266 C 211.98890686035156 267 212.98890686035156 268 213.98890686035156 268 L 231.98890686035156 268 " class="clickable"/></g></g><g id="sprotty_e$packet_handler/r$i_data_to_e$packet_handler/k$null12/i$i_dataIN" class="sprotty-edge thick edge" style="fill:none;stroke:rgb(112, 112, 112);stroke-linejoin:round;stroke-width:3px;"><g><path d="M 0 308 L 231.98890686035156 308 "/><path d="M 0 308 L 231.98890686035156 308 " class="clickable"/></g></g><g id="sprotty_e$packet_handler/r$i_ready_to_e$packet_handler/k$null12/i$i_readyIN" class="sprotty-edge edge" style="fill:none;stroke:rgb(112, 112, 112);stroke-linejoin:round;"><g><path d="M 0 132 L 82.19593811035156 132 C 83.19593811035156 132 84.19593811035156 133 84.19593811035156 134 L 84.19593811035156 296 C 84.19593811035156 297 85.19593811035156 298 86.19593811035156 298 L 231.98890686035156 298 "/><path d="M 0 132 L 82.19593811035156 132 C 83.19593811035156 132 84.19593811035156 133 84.19593811035156 134 L 84.19593811035156 296 C 84.19593811035156 297 85.19593811035156 298 86.19593811035156 298 L 231.98890686035156 298 " class="clickable"/></g></g><g id="sprotty_e$packet_handler/r$o_data_to_e$packet_handler/k$null12/i$o_dataIN" class="sprotty-edge thick edge" style="fill:none;stroke:rgb(112, 112, 112);stroke-linejoin:round;stroke-width:3px;"><g><path d="M 543.53955078125 368 L 223.98890686035156 368 C 222.98890686035156 368 221.98890686035156 367 221.98890686035156 366 L 221.98890686035156 340 C 221.98890686035156 339 222.98890686035156 338 223.98890686035156 338 L 231.98890686035156 338 "/><path d="M 543.53955078125 368 L 223.98890686035156 368 C 222.98890686035156 368 221.98890686035156 367 221.98890686035156 366 L 221.98890686035156 340 C 221.98890686035156 339 222.98890686035156 338 223.98890686035156 338 L 231.98890686035156 338 " class="clickable"/></g></g><g id="sprotty_e$packet_handler/r$i_clk_to_e$packet_handler/k$null11/i$i_clkIN" class="sprotty-edge edge" style="fill:none;stroke:rgb(112, 112, 112);stroke-linejoin:round;"><g><path d="M 0 98 L 102.19593811035156 98 C 103.19593811035156 98 104.19593811035156 99 104.19593811035156 100 L 104.19593811035156 234 C 104.19593811035156 235 105.19593811035156 236 106.19593811035156 236 L 297.78187561035156 236 C 298.78187561035156 236 299.78187561035156 237 299.78187561035156 238 L 299.78187561035156 271 C 299.78187561035156 272 300.78187561035156 273 301.78187561035156 273 L 309.7818603515625 273 "/><path d="M 0 98 L 102.19593811035156 98 C 103.19593811035156 98 104.19593811035156 99 104.19593811035156 100 L 104.19593811035156 234 C 104.19593811035156 235 105.19593811035156 236 106.19593811035156 236 L 297.78187561035156 236 C 298.78187561035156 236 299.78187561035156 237 299.78187561035156 238 L 299.78187561035156 271 C 299.78187561035156 272 300.78187561035156 273 301.78187561035156 273 L 309.7818603515625 273 " class="clickable"/></g></g><g id="sprotty_e$packet_handler/r$i_rst_n_to_e$packet_handler/k$null11/i$i_rst_nIN" class="sprotty-edge edge" style="fill:none;stroke:rgb(112, 112, 112);stroke-linejoin:round;"><g><path d="M 0 171 L 92.19593811035156 171 C 93.19593811035156 171 94.19593811035156 172 94.19593811035156 173 L 94.19593811035156 357 C 94.19593811035156 358 95.19593811035156 359 96.19593811035156 359 L 277.78187561035156 359 C 278.78187561035156 359 279.78187561035156 358 279.78187561035156 357 L 279.78187561035156 315 C 279.78187561035156 314 280.78187561035156 313 281.78187561035156 313 L 309.7818603515625 313 "/><path d="M 0 171 L 92.19593811035156 171 C 93.19593811035156 171 94.19593811035156 172 94.19593811035156 173 L 94.19593811035156 357 C 94.19593811035156 358 95.19593811035156 359 96.19593811035156 359 L 277.78187561035156 359 C 278.78187561035156 359 279.78187561035156 358 279.78187561035156 357 L 279.78187561035156 315 C 279.78187561035156 314 280.78187561035156 313 281.78187561035156 313 L 309.7818603515625 313 " class="clickable"/></g></g><g id="sprotty_e$packet_handler/r$i_clk_to_e$packet_handler/k$null10/i$i_clkIN" class="sprotty-edge edge" style="fill:none;stroke:rgb(112, 112, 112);stroke-linejoin:round;"><g><path d="M 0 98 L 102.19593811035156 98 C 103.19593811035156 98 104.19593811035156 99 104.19593811035156 100 L 104.19593811035156 113 C 104.19593811035156 114 105.19593811035156 115 106.19593811035156 115 L 355.5748291015625 115 C 356.5748291015625 115 357.5748291015625 116 357.5748291015625 117 L 357.5748291015625 214 C 357.5748291015625 215 358.5748291015625 216 359.5748291015625 216 L 367.5748291015625 216 "/><path d="M 0 98 L 102.19593811035156 98 C 103.19593811035156 98 104.19593811035156 99 104.19593811035156 100 L 104.19593811035156 113 C 104.19593811035156 114 105.19593811035156 115 106.19593811035156 115 L 355.5748291015625 115 C 356.5748291015625 115 357.5748291015625 116 357.5748291015625 117 L 357.5748291015625 214 C 357.5748291015625 215 358.5748291015625 216 359.5748291015625 216 L 367.5748291015625 216 " class="clickable"/></g><circle r="2" id="sprotty_e$packet_handler/r$i_clk_to_e$packet_handler/k$null10/i$i_clkIN/junction0" transform="translate(104.19593811035156, 115)" class="sprotty-junction junction" style="fill:rgb(112, 112, 112);stroke:none;"/></g><g id="sprotty_e$packet_handler/r$i_rst_n_to_e$packet_handler/k$null10/i$i_rst_nIN" class="sprotty-edge edge" style="fill:none;stroke:rgb(112, 112, 112);stroke-linejoin:round;"><g><path d="M 0 171 L 92.19593811035156 171 C 93.19593811035156 171 94.19593811035156 172 94.19593811035156 173 L 94.19593811035156 224 C 94.19593811035156 225 95.19593811035156 226 96.19593811035156 226 L 367.5748291015625 226 "/><path d="M 0 171 L 92.19593811035156 171 C 93.19593811035156 171 94.19593811035156 172 94.19593811035156 173 L 94.19593811035156 224 C 94.19593811035156 225 95.19593811035156 226 96.19593811035156 226 L 367.5748291015625 226 " class="clickable"/></g><circle r="2" id="sprotty_e$packet_handler/r$i_rst_n_to_e$packet_handler/k$null10/i$i_rst_nIN/junction0" transform="translate(94.19593811035156, 226)" class="sprotty-junction junction" style="fill:rgb(112, 112, 112);stroke:none;"/></g><g id="sprotty_e$packet_handler/k$null14/i$next_stateOUT_to_e$packet_handler/k$null15/i$next_stateIN" class="sprotty-edge thick edge" style="fill:none;stroke:rgb(112, 112, 112);stroke-linejoin:round;stroke-width:3px;"><g><path d="M 269.78187561035156 190 L 277.78187561035156 190 C 278.78187561035156 190 279.78187561035156 189 279.78187561035156 188 L 279.78187561035156 126 C 279.78187561035156 125 278.78187561035156 124 277.78187561035156 124 L 116.19593811035156 124 C 115.19593811035156 124 114.19593811035156 125 114.19593811035156 126 L 114.19593811035156 162 C 114.19593811035156 163 115.19593811035156 164 116.19593811035156 164 L 134.19593811035156 164 "/><path d="M 269.78187561035156 190 L 277.78187561035156 190 C 278.78187561035156 190 279.78187561035156 189 279.78187561035156 188 L 279.78187561035156 126 C 279.78187561035156 125 278.78187561035156 124 277.78187561035156 124 L 116.19593811035156 124 C 115.19593811035156 124 114.19593811035156 125 114.19593811035156 126 L 114.19593811035156 162 C 114.19593811035156 163 115.19593811035156 164 116.19593811035156 164 L 134.19593811035156 164 " class="clickable"/></g></g><g id="sprotty_e$packet_handler/k$null11/i$o_packetLostRegOUT_to_e$packet_handler/m$o_packetLost/i$o_packetLostRegIN" class="sprotty-edge thick edge" style="fill:none;stroke:rgb(112, 112, 112);stroke-linejoin:round;stroke-width:3px;"><g><path d="M 347.5748291015625 293 L 425.3677978515625 293 "/><path d="M 347.5748291015625 293 L 425.3677978515625 293 " class="clickable"/></g></g><g id="sprotty_e$packet_handler/k$null11/i$o_packetLostRegOUT_to_e$packet_handler/k$null10/i$o_packetLostRegIN" class="sprotty-edge thick edge" style="fill:none;stroke:rgb(112, 112, 112);stroke-linejoin:round;stroke-width:3px;"><g><path d="M 347.5748291015625 293 L 355.5748291015625 293 C 356.5748291015625 293 357.5748291015625 292 357.5748291015625 291 L 357.5748291015625 238 C 357.5748291015625 237 358.5748291015625 236 359.5748291015625 236 L 367.5748291015625 236 "/><path d="M 347.5748291015625 293 L 355.5748291015625 293 C 356.5748291015625 293 357.5748291015625 292 357.5748291015625 291 L 357.5748291015625 238 C 357.5748291015625 237 358.5748291015625 236 359.5748291015625 236 L 367.5748291015625 236 " class="clickable"/></g><circle r="3" id="sprotty_e$packet_handler/k$null11/i$o_packetLostRegOUT_to_e$packet_handler/k$null10/i$o_packetLostRegIN/junction0" transform="translate(357.5748291015625, 293)" class="sprotty-junction thick" style="fill:rgb(112, 112, 112);stroke:none;"/></g><g id="sprotty_e$packet_handler/k$null10/i$o_packetLostReg_dOUT_to_e$packet_handler/m$o_packetLost/i$o_packetLostReg_dIN" class="sprotty-edge thick edge" style="fill:none;stroke:rgb(112, 112, 112);stroke-linejoin:round;stroke-width:3px;"><g><path d="M 405.3677978515625 226 L 413.3677978515625 226 C 414.3677978515625 226 415.3677978515625 227 415.3677978515625 228 L 415.3677978515625 281 C 415.3677978515625 282 416.3677978515625 283 417.3677978515625 283 L 425.3677978515625 283 "/><path d="M 405.3677978515625 226 L 413.3677978515625 226 C 414.3677978515625 226 415.3677978515625 227 415.3677978515625 228 L 415.3677978515625 281 C 415.3677978515625 282 416.3677978515625 283 417.3677978515625 283 L 425.3677978515625 283 " class="clickable"/></g></g><g id="sprotty_e$packet_handler/k$null12/i$seqNumberOUT_to_e$packet_handler/k$null11/i$seqNumberIN" class="sprotty-edge thick edge" style="fill:none;stroke:rgb(112, 112, 112);stroke-linejoin:round;stroke-width:3px;"><g><path d="M 269.78187561035156 280.5 L 277.78187561035156 280.5 C 278.78187561035156 280.5 279.78187561035156 281.5 279.78187561035156 282.5 L 279.78187561035156 291 C 279.78187561035156 292 280.78187561035156 293 281.78187561035156 293 L 309.7818603515625 293 "/><path d="M 269.78187561035156 280.5 L 277.78187561035156 280.5 C 278.78187561035156 280.5 279.78187561035156 281.5 279.78187561035156 282.5 L 279.78187561035156 291 C 279.78187561035156 292 280.78187561035156 293 281.78187561035156 293 L 309.7818603515625 293 " class="clickable"/></g></g><g id="sprotty_e$packet_handler/k$null15/i$stateOUT_to_e$packet_handler/k$null14/i$stateIN" class="sprotty-edge thick edge" style="fill:none;stroke:rgb(112, 112, 112);stroke-linejoin:round;stroke-width:3px;"><g><path d="M 171.98890686035156 174 L 189.98890686035156 174 C 190.98890686035156 174 191.98890686035156 175 191.98890686035156 176 L 191.98890686035156 193 C 191.98890686035156 194 192.98890686035156 195 193.98890686035156 195 L 231.98890686035156 195 "/><path d="M 171.98890686035156 174 L 189.98890686035156 174 C 190.98890686035156 174 191.98890686035156 175 191.98890686035156 176 L 191.98890686035156 193 C 191.98890686035156 194 192.98890686035156 195 193.98890686035156 195 L 231.98890686035156 195 " class="clickable"/></g><circle r="3" id="sprotty_e$packet_handler/k$null15/i$stateOUT_to_e$packet_handler/k$null14/i$stateIN/junction0" transform="translate(191.98890686035156, 174)" class="sprotty-junction thick" style="fill:rgb(112, 112, 112);stroke:none;"/><circle r="3" id="sprotty_e$packet_handler/k$null15/i$stateOUT_to_e$packet_handler/k$null14/i$stateIN/junction1" transform="translate(191.98890686035156, 195)" class="sprotty-junction thick" style="fill:rgb(112, 112, 112);stroke:none;"/></g><g id="sprotty_e$packet_handler/k$null15/i$stateOUT_to_e$packet_handler/k$null13/i$stateIN" class="sprotty-edge thick edge" style="fill:none;stroke:rgb(112, 112, 112);stroke-linejoin:round;stroke-width:3px;"><g><path d="M 171.98890686035156 174 L 189.98890686035156 174 C 190.98890686035156 174 191.98890686035156 173 191.98890686035156 172 L 191.98890686035156 87 C 191.98890686035156 86 192.98890686035156 85 193.98890686035156 85 L 231.98890686035156 85 "/><path d="M 171.98890686035156 174 L 189.98890686035156 174 C 190.98890686035156 174 191.98890686035156 173 191.98890686035156 172 L 191.98890686035156 87 C 191.98890686035156 86 192.98890686035156 85 193.98890686035156 85 L 231.98890686035156 85 " class="clickable"/></g></g><g id="sprotty_e$packet_handler/k$null15/i$stateOUT_to_e$packet_handler/k$null12/i$stateIN" class="sprotty-edge thick edge" style="fill:none;stroke:rgb(112, 112, 112);stroke-linejoin:round;stroke-width:3px;"><g><path d="M 171.98890686035156 174 L 189.98890686035156 174 C 190.98890686035156 174 191.98890686035156 175 191.98890686035156 176 L 191.98890686035156 276 C 191.98890686035156 277 192.98890686035156 278 193.98890686035156 278 L 231.98890686035156 278 "/><path d="M 171.98890686035156 174 L 189.98890686035156 174 C 190.98890686035156 174 191.98890686035156 175 191.98890686035156 176 L 191.98890686035156 276 C 191.98890686035156 277 192.98890686035156 278 193.98890686035156 278 L 231.98890686035156 278 " class="clickable"/></g></g><g id="sprotty_e$packet_handler/k$null15/i$stateOUT_to_e$packet_handler/k$null11/i$stateIN" class="sprotty-edge thick edge" style="fill:none;stroke:rgb(112, 112, 112);stroke-linejoin:round;stroke-width:3px;"><g><path d="M 171.98890686035156 174 L 189.98890686035156 174 C 190.98890686035156 174 191.98890686035156 175 191.98890686035156 176 L 191.98890686035156 244 C 191.98890686035156 245 192.98890686035156 246 193.98890686035156 246 L 287.78187561035156 246 C 288.78187561035156 246 289.78187561035156 247 289.78187561035156 248 L 289.78187561035156 281 C 289.78187561035156 282 290.78187561035156 283 291.78187561035156 283 L 309.7818603515625 283 "/><path d="M 171.98890686035156 174 L 189.98890686035156 174 C 190.98890686035156 174 191.98890686035156 175 191.98890686035156 176 L 191.98890686035156 244 C 191.98890686035156 245 192.98890686035156 246 193.98890686035156 246 L 287.78187561035156 246 C 288.78187561035156 246 289.78187561035156 247 289.78187561035156 248 L 289.78187561035156 281 C 289.78187561035156 282 290.78187561035156 283 291.78187561035156 283 L 309.7818603515625 283 " class="clickable"/></g><circle r="3" id="sprotty_e$packet_handler/k$null15/i$stateOUT_to_e$packet_handler/k$null11/i$stateIN/junction0" transform="translate(191.98890686035156, 246)" class="sprotty-junction thick" style="fill:rgb(112, 112, 112);stroke:none;"/></g><g id="sprotty_e$packet_handler/k$null12/i$streamIdOUT_to_e$packet_handler/k$null11/i$streamIdIN" class="sprotty-edge thick edge" style="fill:none;stroke:rgb(112, 112, 112);stroke-linejoin:round;stroke-width:3px;"><g><path d="M 269.78187561035156 303 L 309.7818603515625 303 "/><path d="M 269.78187561035156 303 L 309.7818603515625 303 " class="clickable"/></g></g><g id="sprotty_e$packet_handler/k$null10" class="statement" transform="translate(367.5748291015625, 206)"><rect x="0" y="0" rx="10" ry="5" width="37.79296875" height="40" class="sprotty-node" style="fill:rgb(245, 245, 245);stroke:rgb(112, 112, 112);"/><text class="clickable sprotty-label statementtype" id="sprotty_e$packet_handler/k$null10/labeltype" transform="translate(5, 15.5) translate(14.125, 7)" style="cursor:default;fill:rgb(112, 112, 112);font-size:8px;font-weight:700;perspective-origin:7.34375px 1.5px;text-anchor:middle;">always</text><g id="sprotty_e$packet_handler/k$null10/i$o_packetLostRegIN" class="sprotty-hidden hidden" transform="translate(0, 30)" style="block-size:0px;display:block;height:0px;inline-size:0px;width:0px;"/><g id="sprotty_e$packet_handler/k$null10/i$i_rst_nIN" class="sprotty-hidden hidden" transform="translate(0, 20)" style="block-size:0px;display:block;height:0px;inline-size:0px;width:0px;"/><g id="sprotty_e$packet_handler/k$null10/i$i_clkIN" class="sprotty-hidden hidden" transform="translate(0, 10)" style="block-size:0px;display:block;height:0px;inline-size:0px;width:0px;"/><g id="sprotty_e$packet_handler/k$null10/i$o_packetLostReg_dOUT" class="sprotty-hidden hidden" transform="translate(37.79296875, 20)" style="block-size:0px;display:block;height:0px;inline-size:0px;width:0px;"/></g><g id="sprotty_e$packet_handler/k$null11" class="statement" transform="translate(309.7818603515625, 263)"><rect x="0" y="0" rx="10" ry="5" width="37.79296875" height="60" class="sprotty-node" style="fill:rgb(245, 245, 245);stroke:rgb(112, 112, 112);"/><text class="clickable sprotty-label statementtype" id="sprotty_e$packet_handler/k$null11/labeltype" transform="translate(5, 25.5) translate(14.125, 7)" style="cursor:default;fill:rgb(112, 112, 112);font-size:8px;font-weight:700;perspective-origin:7.34375px 1.5px;text-anchor:middle;">always</text><g id="sprotty_e$packet_handler/k$null11/i$seqNumberIN" class="sprotty-hidden hidden" transform="translate(0, 30)" style="block-size:0px;display:block;height:0px;inline-size:0px;width:0px;"/><g id="sprotty_e$packet_handler/k$null11/i$streamIdIN" class="sprotty-hidden hidden" transform="translate(0, 40)" style="block-size:0px;display:block;height:0px;inline-size:0px;width:0px;"/><g id="sprotty_e$packet_handler/k$null11/i$stateIN" class="sprotty-hidden hidden" transform="translate(0, 20)" style="block-size:0px;display:block;height:0px;inline-size:0px;width:0px;"/><g id="sprotty_e$packet_handler/k$null11/i$i_rst_nIN" class="sprotty-hidden hidden" transform="translate(0, 50)" style="block-size:0px;display:block;height:0px;inline-size:0px;width:0px;"/><g id="sprotty_e$packet_handler/k$null11/i$i_clkIN" class="sprotty-hidden hidden" transform="translate(0, 10)" style="block-size:0px;display:block;height:0px;inline-size:0px;width:0px;"/><g id="sprotty_e$packet_handler/k$null11/i$o_packetLostRegOUT" class="sprotty-hidden hidden" transform="translate(37.79296875, 30)" style="block-size:0px;display:block;height:0px;inline-size:0px;width:0px;"/></g><g id="sprotty_e$packet_handler/k$null12" class="statement" transform="translate(231.98890686035156, 258)"><rect x="0" y="0" rx="10" ry="5" width="37.79296875" height="90" class="sprotty-node" style="fill:rgb(245, 245, 245);stroke:rgb(112, 112, 112);"/><text class="clickable sprotty-label statementtype" id="sprotty_e$packet_handler/k$null12/labeltype" transform="translate(5, 40.5) translate(14.125, 7)" style="cursor:default;fill:rgb(112, 112, 112);font-size:8px;font-weight:700;perspective-origin:7.34375px 1.5px;text-anchor:middle;">always</text><g id="sprotty_e$packet_handler/k$null12/i$o_dataIN" class="sprotty-hidden hidden" transform="translate(0, 80)" style="block-size:0px;display:block;height:0px;inline-size:0px;width:0px;"/><g id="sprotty_e$packet_handler/k$null12/i$i_readyIN" class="sprotty-hidden hidden" transform="translate(0, 40)" style="block-size:0px;display:block;height:0px;inline-size:0px;width:0px;"/><g id="sprotty_e$packet_handler/k$null12/i$i_dataIN" class="sprotty-hidden hidden" transform="translate(0, 50)" style="block-size:0px;display:block;height:0px;inline-size:0px;width:0px;"/><g id="sprotty_e$packet_handler/k$null12/i$o_readyIN" class="sprotty-hidden hidden" transform="translate(0, 10)" style="block-size:0px;display:block;height:0px;inline-size:0px;width:0px;"/><g id="sprotty_e$packet_handler/k$null12/i$i_validIN" class="sprotty-hidden hidden" transform="translate(0, 70)" style="block-size:0px;display:block;height:0px;inline-size:0px;width:0px;"/><g id="sprotty_e$packet_handler/k$null12/i$stateIN" class="sprotty-hidden hidden" transform="translate(0, 20)" style="block-size:0px;display:block;height:0px;inline-size:0px;width:0px;"/><g id="sprotty_e$packet_handler/k$null12/i$i_rst_nIN" class="sprotty-hidden hidden" transform="translate(0, 60)" style="block-size:0px;display:block;height:0px;inline-size:0px;width:0px;"/><g id="sprotty_e$packet_handler/k$null12/i$i_clkIN" class="sprotty-hidden hidden" transform="translate(0, 30)" style="block-size:0px;display:block;height:0px;inline-size:0px;width:0px;"/><g id="sprotty_e$packet_handler/k$null12/i$o_dataOUT" class="sprotty-hidden hidden" transform="translate(37.79296875, 67.5)" style="block-size:0px;display:block;height:0px;inline-size:0px;width:0px;"/><g id="sprotty_e$packet_handler/k$null12/i$streamIdOUT" class="sprotty-hidden hidden" transform="translate(37.79296875, 45)" style="block-size:0px;display:block;height:0px;inline-size:0px;width:0px;"/><g id="sprotty_e$packet_handler/k$null12/i$seqNumberOUT" class="sprotty-hidden hidden" transform="translate(37.79296875, 22.5)" style="block-size:0px;display:block;height:0px;inline-size:0px;width:0px;"/></g><g id="sprotty_e$packet_handler/k$null13" class="statement" transform="translate(231.98890686035156, 35)"><rect x="0" y="0" rx="10" ry="5" width="37.79296875" height="60" class="sprotty-node" style="fill:rgb(245, 245, 245);stroke:rgb(112, 112, 112);"/><text class="clickable sprotty-label statementtype" id="sprotty_e$packet_handler/k$null13/labeltype" transform="translate(5, 25.5) translate(14.125, 7)" style="cursor:default;fill:rgb(112, 112, 112);font-size:8px;font-weight:700;perspective-origin:7.34375px 1.5px;text-anchor:middle;">always</text><g id="sprotty_e$packet_handler/k$null13/i$i_readyIN" class="sprotty-hidden hidden" transform="translate(0, 20)" style="block-size:0px;display:block;height:0px;inline-size:0px;width:0px;"/><g id="sprotty_e$packet_handler/k$null13/i$i_lastIN" class="sprotty-hidden hidden" transform="translate(0, 30)" style="block-size:0px;display:block;height:0px;inline-size:0px;width:0px;"/><g id="sprotty_e$packet_handler/k$null13/i$stateIN" class="sprotty-hidden hidden" transform="translate(0, 50)" style="block-size:0px;display:block;height:0px;inline-size:0px;width:0px;"/><g id="sprotty_e$packet_handler/k$null13/i$i_rst_nIN" class="sprotty-hidden hidden" transform="translate(0, 40)" style="block-size:0px;display:block;height:0px;inline-size:0px;width:0px;"/><g id="sprotty_e$packet_handler/k$null13/i$i_clkIN" class="sprotty-hidden hidden" transform="translate(0, 10)" style="block-size:0px;display:block;height:0px;inline-size:0px;width:0px;"/><g id="sprotty_e$packet_handler/k$null13/i$o_readyOUT" class="sprotty-hidden hidden" transform="translate(37.79296875, 40)" style="block-size:0px;display:block;height:0px;inline-size:0px;width:0px;"/><g id="sprotty_e$packet_handler/k$null13/i$o_validOUT" class="sprotty-hidden hidden" transform="translate(37.79296875, 20)" style="block-size:0px;display:block;height:0px;inline-size:0px;width:0px;"/></g><g id="sprotty_e$packet_handler/k$null14" class="statement" transform="translate(231.98890686035156, 165)"><rect x="0" y="0" rx="10" ry="5" width="37.79296875" height="50" class="sprotty-node" style="fill:rgb(245, 245, 245);stroke:rgb(112, 112, 112);"/><text class="clickable sprotty-label statementtype" id="sprotty_e$packet_handler/k$null14/labeltype" transform="translate(5, 20.5) translate(14.125, 7)" style="cursor:default;fill:rgb(112, 112, 112);font-size:8px;font-weight:700;perspective-origin:7.34375px 1.5px;text-anchor:middle;">always</text><g id="sprotty_e$packet_handler/k$null14/i$i_readyIN" class="sprotty-hidden hidden" transform="translate(0, 10)" style="block-size:0px;display:block;height:0px;inline-size:0px;width:0px;"/><g id="sprotty_e$packet_handler/k$null14/i$i_lastIN" class="sprotty-hidden hidden" transform="translate(0, 20)" style="block-size:0px;display:block;height:0px;inline-size:0px;width:0px;"/><g id="sprotty_e$packet_handler/k$null14/i$i_validIN" class="sprotty-hidden hidden" transform="translate(0, 40)" style="block-size:0px;display:block;height:0px;inline-size:0px;width:0px;"/><g id="sprotty_e$packet_handler/k$null14/i$stateIN" class="sprotty-hidden hidden" transform="translate(0, 30)" style="block-size:0px;display:block;height:0px;inline-size:0px;width:0px;"/><g id="sprotty_e$packet_handler/k$null14/i$next_stateOUT" class="sprotty-hidden hidden" transform="translate(37.79296875, 25)" style="block-size:0px;display:block;height:0px;inline-size:0px;width:0px;"/></g><g id="sprotty_e$packet_handler/k$null15" class="statement" transform="translate(134.19593811035156, 154)"><rect x="0" y="0" rx="10" ry="5" width="37.79296875" height="40" class="sprotty-node" style="fill:rgb(245, 245, 245);stroke:rgb(112, 112, 112);"/><text class="clickable sprotty-label statementtype" id="sprotty_e$packet_handler/k$null15/labeltype" transform="translate(5, 15.5) translate(14.125, 7)" style="cursor:default;fill:rgb(112, 112, 112);font-size:8px;font-weight:700;perspective-origin:7.34375px 1.5px;text-anchor:middle;">always</text><g id="sprotty_e$packet_handler/k$null15/i$next_stateIN" class="sprotty-hidden hidden" transform="translate(0, 10)" style="block-size:0px;display:block;height:0px;inline-size:0px;width:0px;"/><g id="sprotty_e$packet_handler/k$null15/i$i_rst_nIN" class="sprotty-hidden hidden" transform="translate(0, 30)" style="block-size:0px;display:block;height:0px;inline-size:0px;width:0px;"/><g id="sprotty_e$packet_handler/k$null15/i$i_clkIN" class="sprotty-hidden hidden" transform="translate(0, 20)" style="block-size:0px;display:block;height:0px;inline-size:0px;width:0px;"/><g id="sprotty_e$packet_handler/k$null15/i$stateOUT" class="sprotty-hidden hidden" transform="translate(37.79296875, 20)" style="block-size:0px;display:block;height:0px;inline-size:0px;width:0px;"/></g><g id="sprotty_e$packet_handler/m$o_packetLost" class="statement" transform="translate(425.3677978515625, 273)"><rect x="0" y="0" rx="10" ry="5" width="19.671875" height="30" class="sprotty-node" style="fill:rgb(245, 245, 245);stroke:rgb(112, 112, 112);"/><text class="clickable sprotty-label statementtype" id="sprotty_e$packet_handler/m$o_packetLost/labeltype" transform="translate(5, 10.5) translate(4.671875, 7)" style="cursor:default;fill:rgb(112, 112, 112);font-size:8px;font-weight:700;perspective-origin:2.98438px 1.5px;text-anchor:middle;">&lt;=</text><g id="sprotty_e$packet_handler/m$o_packetLost/i$o_packetLostReg_dIN" class="sprotty-hidden hidden" transform="translate(0, 10)" style="block-size:0px;display:block;height:0px;inline-size:0px;width:0px;"/><g id="sprotty_e$packet_handler/m$o_packetLost/i$o_packetLostRegIN" class="sprotty-hidden hidden" transform="translate(0, 20)" style="block-size:0px;display:block;height:0px;inline-size:0px;width:0px;"/><g id="sprotty_e$packet_handler/m$o_packetLost/i$o_packetLostOUT" class="sprotty-hidden hidden" transform="translate(19.671875, 15)" style="block-size:0px;display:block;height:0px;inline-size:0px;width:0px;"/></g><g id="sprotty_e$packet_handler/r$i_last" class="triangle" transform="translate(0, 64)"><path d="M 0,0 L 5,2.5 L 0,5 Z" transform="translate(-1.67, -2.5)" class="sprotty-port" style="fill:rgb(48, 48, 48);stroke:rgb(48, 48, 48);"/><text class="clickable sprotty-label port" id="sprotty_e$packet_handler/r$i_last/label" transform="translate(6, 6) translate(15.0390625, 14)" style="cursor:default;fill:rgb(48, 48, 48);font-size:12px;perspective-origin:0px 9px;text-anchor:middle;">i_last</text></g><g id="sprotty_e$packet_handler/r$i_ready" class="triangle" transform="translate(0, 132)"><path d="M 0,0 L 5,2.5 L 0,5 Z" transform="translate(-1.67, -2.5)" class="sprotty-port" style="fill:rgb(48, 48, 48);stroke:rgb(48, 48, 48);"/><text class="clickable sprotty-label port" id="sprotty_e$packet_handler/r$i_ready/label" transform="translate(6, 6) translate(20.7265625, 14)" style="cursor:default;fill:rgb(48, 48, 48);font-size:12px;perspective-origin:0px 9px;text-anchor:middle;">i_ready</text></g><g id="sprotty_e$packet_handler/r$i_valid" class="triangle" transform="translate(0, 205)"><path d="M 0,0 L 5,2.5 L 0,5 Z" transform="translate(-1.67, -2.5)" class="sprotty-port" style="fill:rgb(48, 48, 48);stroke:rgb(48, 48, 48);"/><text class="clickable sprotty-label port" id="sprotty_e$packet_handler/r$i_valid/label" transform="translate(6, 6) translate(18.46875, 14)" style="cursor:default;fill:rgb(48, 48, 48);font-size:12px;perspective-origin:0px 9px;text-anchor:middle;">i_valid</text></g><g id="sprotty_e$packet_handler/r$i_data" class="triangle" transform="translate(0, 308)"><path d="M 0,0 L 5,2.5 L 0,5 Z" transform="translate(-1.67, -2.5)" class="sprotty-port" style="fill:rgb(48, 48, 48);stroke:rgb(48, 48, 48);"/><text class="clickable sprotty-label port" id="sprotty_e$packet_handler/r$i_data/label" transform="translate(6, 6) translate(17.5234375, 14)" style="cursor:default;fill:rgb(48, 48, 48);font-size:12px;perspective-origin:0px 9px;text-anchor:middle;">i_data</text></g><g id="sprotty_e$packet_handler/r$i_rst_n" class="triangle" transform="translate(0, 171)"><path d="M 0,0 L 5,2.5 L 0,5 Z" transform="translate(-1.67, -2.5)" class="sprotty-port" style="fill:rgb(48, 48, 48);stroke:rgb(48, 48, 48);"/><text class="clickable sprotty-label port" id="sprotty_e$packet_handler/r$i_rst_n/label" transform="translate(6, 6) translate(19.2734375, 14)" style="cursor:default;fill:rgb(48, 48, 48);font-size:12px;perspective-origin:0px 9px;text-anchor:middle;">i_rst_n</text></g><g id="sprotty_e$packet_handler/r$i_clk" class="triangle" transform="translate(0, 98)"><path d="M 0,0 L 5,2.5 L 0,5 Z" transform="translate(-1.67, -2.5)" class="sprotty-port" style="fill:rgb(48, 48, 48);stroke:rgb(48, 48, 48);"/><text class="clickable sprotty-label port" id="sprotty_e$packet_handler/r$i_clk/label" transform="translate(6, 6) translate(13.0859375, 14)" style="cursor:default;fill:rgb(48, 48, 48);font-size:12px;perspective-origin:0px 9px;text-anchor:middle;">i_clk</text></g><g id="sprotty_e$packet_handler/r$o_data" class="triangle" transform="translate(543.53955078125, 368)"><path d="M 0,0 L 5,2.5 L 0,5 Z" transform="translate(-1.67, -2.5)" class="sprotty-port" style="fill:rgb(48, 48, 48);stroke:rgb(48, 48, 48);"/><text class="clickable sprotty-label port" id="sprotty_e$packet_handler/r$o_data/label" transform="translate(-46.24395751953125, 6) translate(20.5078125, 14)" style="cursor:default;fill:rgb(48, 48, 48);font-size:12px;perspective-origin:0px 9px;text-anchor:middle;">o_data</text></g><g id="sprotty_e$packet_handler/r$o_ready" class="triangle" transform="translate(543.53955078125, 105)"><path d="M 0,0 L 5,2.5 L 0,5 Z" transform="translate(-1.67, -2.5)" class="sprotty-port" style="fill:rgb(48, 48, 48);stroke:rgb(48, 48, 48);"/><text class="clickable sprotty-label port" id="sprotty_e$packet_handler/r$o_ready/label" transform="translate(-54.167938232421875, 6) translate(23.7109375, 14)" style="cursor:default;fill:rgb(48, 48, 48);font-size:12px;perspective-origin:0px 9px;text-anchor:middle;">o_ready</text></g><g id="sprotty_e$packet_handler/r$o_valid" class="triangle" transform="translate(543.53955078125, 55)"><path d="M 0,0 L 5,2.5 L 0,5 Z" transform="translate(-1.67, -2.5)" class="sprotty-port" style="fill:rgb(48, 48, 48);stroke:rgb(48, 48, 48);"/><text class="clickable sprotty-label port" id="sprotty_e$packet_handler/r$o_valid/label" transform="translate(-48.45594787597656, 6) translate(21.453125, 14)" style="cursor:default;fill:rgb(48, 48, 48);font-size:12px;perspective-origin:0px 9px;text-anchor:middle;">o_valid</text></g><g id="sprotty_e$packet_handler/r$o_packetLost" class="triangle" transform="translate(543.53955078125, 288)"><path d="M 0,0 L 5,2.5 L 0,5 Z" transform="translate(-1.67, -2.5)" class="sprotty-port" style="fill:rgb(48, 48, 48);stroke:rgb(48, 48, 48);"/><text class="clickable sprotty-label port" id="sprotty_e$packet_handler/r$o_packetLost/label" transform="translate(-83.4998779296875, 6) translate(38.515625, 14)" style="cursor:default;fill:rgb(48, 48, 48);font-size:12px;perspective-origin:0px 9px;text-anchor:middle;">o_packetLost</text></g></g></g></svg>